<svg width="27" height="51" viewBox="0 0 27 51" fill="none" xmlns="http://www.w3.org/2000/svg">
<path d="M17.1073 0.430584C16.5167 -0.150327 15.567 -0.142453 14.9861 0.448169C14.4052 1.03879 14.4131 1.98851 15.0037 2.56942L17.1073 0.430584ZM0.173816 42.0978C-0.212952 42.8304 0.0674007 43.7378 0.8 44.1246L12.7384 50.4273C13.471 50.8141 14.3784 50.5337 14.7652 49.8011C15.152 49.0685 14.8716 48.1611 14.139 47.7743L3.5271 42.1719L9.12954 31.56C9.51631 30.8274 9.23595 29.92 8.50335 29.5332C7.77075 29.1464 6.86333 29.4268 6.47656 30.1594L0.173816 42.0978ZM15.0037 2.56942C21.6019 9.05912 24.4682 16.75 22.7147 23.6526C20.9662 30.5355 14.4729 37.2202 1.05753 41.3649L1.94308 44.2312C15.8949 39.9208 23.5164 32.6812 25.6224 24.3913C27.7233 16.1211 24.1836 7.39053 17.1073 0.430584L15.0037 2.56942Z" fill="#E15544"/>
</svg>
